<svg xmlns="http://www.w3.org/2000/svg" width="108.592" height="88.864" viewBox="0 0 108.592 88.864">
  <g id="NASA_logo" transform="translate(-4.448 -4.86)">
    <circle id="Ellipse_1" data-name="Ellipse 1" cx="44.432" cy="44.432" r="44.432" transform="translate(10.493 4.86)" fill="#0b3d91"/>
    <g id="Group_1" data-name="Group 1" transform="translate(4.448 8.14)">
      <circle id="Ellipse_2" data-name="Ellipse 2" cx="0.498" cy="0.498" r="0.498" transform="translate(47.355 4.756)" fill="#fff"/>
      <circle id="Ellipse_3" data-name="Ellipse 3" cx="0.498" cy="0.498" r="0.498" transform="translate(52.469 5.421)" fill="#fff"/>
      <circle id="Ellipse_4" data-name="Ellipse 4" cx="0.498" cy="0.498" r="0.498" transform="translate(59.177 14.453)" fill="#fff"/>
      <circle id="Ellipse_5" data-name="Ellipse 5" cx="0.498" cy="0.498" r="0.498" transform="translate(22.383 60.944)" fill="#fff"/>
      <circle id="Ellipse_6" data-name="Ellipse 6" cx="0.498" cy="0.498" r="0.498" transform="translate(23.678 64.929)" fill="#fff"/>
      <circle id="Ellipse_7" data-name="Ellipse 7" cx="0.373" cy="0.373" r="0.373" transform="translate(17.627 61.667)" fill="#fff"/>
      <circle id="Ellipse_8" data-name="Ellipse 8" cx="0.374" cy="0.374" r="0.374" transform="translate(37.882 69.494)" fill="#fff"/>
      <circle id="Ellipse_9" data-name="Ellipse 9" cx="0.373" cy="0.373" r="0.373" transform="translate(69.654 62.896)" fill="#fff"/>
      <circle id="Ellipse_10" data-name="Ellipse 10" cx="0.374" cy="0.374" r="0.374" transform="translate(78.886 52.866)" fill="#fff"/>
      <circle id="Ellipse_11" data-name="Ellipse 11" cx="0.373" cy="0.373" r="0.373" transform="translate(33.633 17.492)" fill="#fff"/>
      <circle id="Ellipse_12" data-name="Ellipse 12" cx="0.373" cy="0.373" r="0.373" transform="translate(43.794 10.029)" fill="#fff"/>
      <circle id="Ellipse_13" data-name="Ellipse 13" cx="0.373" cy="0.373" r="0.373" transform="translate(42.691 9.298)" fill="#fff"/>
      <circle id="Ellipse_14" data-name="Ellipse 14" cx="0.373" cy="0.373" r="0.373" transform="translate(41.695 8.568)" fill="#fff"/>
      <circle id="Ellipse_15" data-name="Ellipse 15" cx="0.373" cy="0.373" r="0.373" transform="translate(35.227 19.419)" fill="#fff"/>
      <circle id="Ellipse_16" data-name="Ellipse 16" cx="0.373" cy="0.373" r="0.373" transform="translate(50.195)" fill="#fff"/>
      <circle id="Ellipse_17" data-name="Ellipse 17" cx="0.373" cy="0.373" r="0.373" transform="translate(52.653 10.759)" fill="#fff"/>
      <circle id="Ellipse_18" data-name="Ellipse 18" cx="0.373" cy="0.373" r="0.373" transform="translate(48.776 8.658)" fill="#fff"/>
      <circle id="Ellipse_19" data-name="Ellipse 19" cx="0.373" cy="0.373" r="0.373" transform="translate(42.134 11.515)" fill="#fff"/>
      <circle id="Ellipse_20" data-name="Ellipse 20" cx="0.373" cy="0.373" r="0.373" transform="translate(71.423 72.751)" fill="#fff"/>
      <circle id="Ellipse_21" data-name="Ellipse 21" cx="0.374" cy="0.374" r="0.374" transform="translate(21.876 63.592)" fill="#fff"/>
      <circle id="Ellipse_22" data-name="Ellipse 22" cx="0.374" cy="0.374" r="0.374" transform="translate(47.845 68.407)" fill="#fff"/>
      <circle id="Ellipse_23" data-name="Ellipse 23" cx="0.374" cy="0.374" r="0.374" transform="translate(29.605 63.293)" fill="#fff"/>
      <circle id="Ellipse_24" data-name="Ellipse 24" cx="0.374" cy="0.374" r="0.374" transform="translate(32.835 68.565)" fill="#fff"/>
      <circle id="Ellipse_25" data-name="Ellipse 25" cx="0.373" cy="0.373" r="0.373" transform="translate(56.613 65.246)" fill="#fff"/>
      <circle id="Ellipse_26" data-name="Ellipse 26" cx="0.373" cy="0.373" r="0.373" transform="translate(69.721 57.848)" fill="#fff"/>
      <circle id="Ellipse_27" data-name="Ellipse 27" cx="0.373" cy="0.373" r="0.373" transform="translate(79.659 62.389)" fill="#fff"/>
      <circle id="Ellipse_28" data-name="Ellipse 28" cx="0.373" cy="0.373" r="0.373" transform="translate(83.046 64.556)" fill="#fff"/>
      <circle id="Ellipse_29" data-name="Ellipse 29" cx="0.373" cy="0.373" r="0.373" transform="translate(83.603 58.645)" fill="#fff"/>
      <circle id="Ellipse_30" data-name="Ellipse 30" cx="0.373" cy="0.373" r="0.373" transform="translate(34.189 50.277)" fill="#fff"/>
      <circle id="Ellipse_31" data-name="Ellipse 31" cx="0.498" cy="0.498" r="0.498" transform="translate(34.205 58.719)" fill="#fff"/>
      <circle id="Ellipse_32" data-name="Ellipse 32" cx="0.498" cy="0.498" r="0.498" transform="translate(37.194 65.029)" fill="#fff"/>
      <circle id="Ellipse_33" data-name="Ellipse 33" cx="0.498" cy="0.498" r="0.498" transform="translate(72.992 58.453)" fill="#fff"/>
      <circle id="Ellipse_34" data-name="Ellipse 34" cx="0.498" cy="0.498" r="0.498" transform="translate(85.876 57.723)" fill="#fff"/>
      <circle id="Ellipse_35" data-name="Ellipse 35" cx="0.498" cy="0.498" r="0.498" transform="translate(79.501 55)" fill="#fff"/>
      <circle id="Ellipse_36" data-name="Ellipse 36" cx="0.498" cy="0.498" r="0.498" transform="translate(72.992 55.265)" fill="#fff"/>
      <path id="Path_1" data-name="Path 1" d="M58.937,12.469l1.239-.118-1.236-.07a.55.55,0,0,0-.472-.457l-.118-1.233-.071,1.243a.547.547,0,0,0-.423.469l-1.266.115,1.275.069a.548.548,0,0,0,.436.421l.115,1.271.068-1.269A.555.555,0,0,0,58.937,12.469Z" transform="translate(1.127 -7.527)" fill="#fff"/>
      <path id="Path_2" data-name="Path 2" d="M40.051,24.927l1.239-.118-1.236-.07a.548.548,0,0,0-.472-.457l-.118-1.233-.07,1.243a.547.547,0,0,0-.424.469l-1.266.115,1.275.069a.548.548,0,0,0,.436.421l.115,1.271.069-1.269A.551.551,0,0,0,40.051,24.927Z" transform="translate(-0.892 -6.195)" fill="#fff"/>
      <path id="Path_3" data-name="Path 3" d="M81.886,57.865l1.239-.118-1.236-.07a.548.548,0,0,0-.472-.457L81.3,55.987l-.07,1.243a.547.547,0,0,0-.423.469l-1.266.115,1.275.069a.548.548,0,0,0,.436.421l.115,1.271.069-1.269A.552.552,0,0,0,81.886,57.865Z" transform="translate(3.581 -2.673)" fill="#fff"/>
      <path id="Path_4" data-name="Path 4" d="M36.271,75.087l1.239-.118-1.236-.07a.55.55,0,0,0-.472-.457l-.118-1.232-.07,1.242a.547.547,0,0,0-.424.469l-1.266.115,1.275.069a.547.547,0,0,0,.436.421l.115,1.271.069-1.269A.552.552,0,0,0,36.271,75.087Z" transform="translate(-1.296 -0.831)" fill="#fff"/>
      <path id="Path_5" data-name="Path 5" d="M78.331,66.687l1.239-.118-1.236-.07a.548.548,0,0,0-.472-.457l-.118-1.233-.07,1.242a.547.547,0,0,0-.423.469l-1.266.115,1.275.069a.548.548,0,0,0,.436.421L77.81,68.4l.069-1.269A.55.55,0,0,0,78.331,66.687Z" transform="translate(3.201 -1.73)" fill="#fff"/>
      <path id="Path_6" data-name="Path 6" d="M65.462,38.29c-5.166,2.008-10.2,3.8-14.456,5.131-8.64,2.705-32.278,10.029-46.557,19.261l1.2.465a87.39,87.39,0,0,1,19.792-8.169c5.911-1.86,25.02-6.332,33.673-8.767,2.923-.822,6.347-1.9,9.973-3.21q-1.265-1.765-2.67-3.534Q65.942,38.869,65.462,38.29Zm6.312,8.7c-1.251.845-2.3,1.519-3.033,1.944-4.251,2.457-24.973,16.6-29.688,19.858S21.253,84.4,17.4,87.985l-.133,1.46A257.526,257.526,0,0,1,38.521,71.78c6.11-4.649,18.75-13.25,23.046-16.006Q67.728,51.822,72.7,48.5l-.163-.273Q72.164,47.61,71.773,46.989Zm19.414-20.5C85.137,30.031,75.6,34.311,66.35,37.943q.332.407.661.82,1.551,1.953,2.927,3.924c7.273-2.679,15.252-6.274,21.584-10.625C88.5,34.92,78.532,42.373,72.452,46.528q.47.765.91,1.529c9.212-6.164,15.411-10.7,19.023-13.736,4.981-4.184,16.338-13.549,20.655-26.1C105.467,17.85,96.514,23.362,91.188,26.484Z" transform="translate(-4.448 -7.781)" fill="#fc3d21"/>
      <path id="Path_7" data-name="Path 7" d="M46.5,58.84c-.98-1.233-2.335-2.885-3.352-4.165-1.36-1.712-2.619-3.443-3.772-5.17l-1.127.282a78.606,78.606,0,0,0,4.624,6.463c1.231,1.55,2.35,2.8,2.923,3.573.116.157.346.5.658.967l1.086-.737C47.188,59.669,46.839,59.265,46.5,58.84Zm7.151,6.491c-.8-.762-2.756-2.033-4.787-3.942q-.672.462-1.355.934c1.312,1.849,3.1,4.119,4.5,4.781C54.115,68.1,54.683,66.307,53.652,65.331ZM64.3,37.668C52.69,23.05,38.5,15.02,32.386,19.88c-4.751,3.775-2.8,14.806,3.748,26.395l1.006-.343C30.531,34.641,28.722,24.148,33.2,20.587c5.631-4.474,19.227,3.588,30.5,17.782a84.134,84.134,0,0,1,6.125,8.761c6.655,11.014,8.7,20.974,4.1,25.04-1.407,1.244-5.706,1.732-11.338-.8-.079.1.048.365.146.431,4.862,1.955,9.518,2.7,11.87.832C80.258,68.141,75.918,52.287,64.3,37.668Z" transform="translate(-1.742 -6.686)" fill="#fff"/>
      <path id="Path_8" data-name="Path 8" d="M15.969,37.38h7.439l6.243,10.593V39.7a3.573,3.573,0,0,0-1.594-2.325H33.2A3.289,3.289,0,0,0,31.876,39.7V51.859c0,.747,1.079,1.777,1.594,2.175H26.3L19.954,43.391v8.368c0,.83.814,1.627,1.66,2.308H16.135a3,3,0,0,0,1.594-2.208c.066-.83,0-11.54,0-12C17.729,38.841,16.749,38.011,15.969,37.38Z" transform="translate(-3.216 -4.663)" fill="#fff"/>
      <path id="Path_9" data-name="Path 9" d="M78.377,54.034h9.9a2.608,2.608,0,0,1-1.494-1.644c-.332-.863-5.579-15.01-5.579-15.01H77.438q-1.6,1.152-3.431,2.432c0,.031-.007.062-.012.092-.164,1-3.108,11.66-3.288,12.187-.249.731-1.528,1.544-2.042,1.976h5.33a2.4,2.4,0,0,1-.863-1.843c.1-.664.4-1.992.4-1.992h5.512a10.114,10.114,0,0,1,.531,1.826C79.689,52.739,78.992,53.5,78.377,54.034Zm-4.35-5.928,1.86-6.077,2.457,6.077Zm-.838-10.12.821-.607H72.566C72.71,37.513,72.948,37.722,73.189,37.987Z" transform="translate(2.418 -4.663)" fill="#fff"/>
      <path id="Path_10" data-name="Path 10" d="M38.99,52.224c.1-.664.4-1.992.4-1.992H44.9a10.114,10.114,0,0,1,.531,1.826c.116.681-.581,1.445-1.2,1.976H52.95l.542-.364a3.318,3.318,0,0,1-.853-1.28c-.332-.863-5.579-15.01-5.579-15.01H38.426c.415.382,1.611,1.411,1.428,2.524-.163,1-3.108,11.66-3.288,12.187-.249.731-1.528,1.544-2.042,1.976h5.33A2.4,2.4,0,0,1,38.99,52.224Zm2.756-10.195L44.2,48.106H39.887Z" transform="translate(-1.232 -4.663)" fill="#fff"/>
      <path id="Path_11" data-name="Path 11" d="M66.979,45.669q-2.437,1.624-5.146,3.393c.81.393,1.456.887,1.518,1.524.115,1.2-2.291,1.777-4.466,1.528a5.375,5.375,0,0,1-1.27-.317l-1.37.881c-.47.3-1.042.674-1.694,1.1V55.5a3.038,3.038,0,0,1,2.109-1.644c.315-.017,1.411,1,5.928.747,2.192-.121,6.426-2.457,6.359-5.147A5.171,5.171,0,0,0,66.979,45.669ZM54.55,49.822v1.751q.6-.4,1.18-.785A8.726,8.726,0,0,1,54.55,49.822ZM65.435,44.57c-.421-.249-.847-.467-1.255-.66-2.125-1-4.35-1.179-4.815-2.524-.328-.949.6-1.826,2.856-1.793a8.869,8.869,0,0,1,4.915,1.86V37.169c-.166.166-.894,1-1.561.863a29.175,29.175,0,0,0-5.944-.6,5.349,5.349,0,0,0-5.4,5.014c-.116,3.9,3.005,4.965,4.765,5.579.182.063.389.131.613.2,1.688-1.1,3.023-1.944,3.8-2.394C63.942,45.534,64.629,45.1,65.435,44.57Z" transform="translate(0.875 -4.685)" fill="#fff"/>
    </g>
  </g>
</svg>
